<svg width="92" height="92" viewBox="0 0 92 92" fill="none" xmlns="http://www.w3.org/2000/svg">
<g filter="url(#filter0_d_1_411)">
<circle cx="45.7138" cy="40.6007" r="25.2615" fill="#052A44"/>
</g>
<g clip-path="url(#clip0_1_411)">
<path d="M50.1344 40.6008H41.7981V43.5059H50.1344V40.6008ZM53.9986 33.7467L49.748 29.2983C49.5526 29.094 49.2878 28.9805 49.0099 28.9805H48.745V34.7907H54.3026V34.5138C54.3026 34.2278 54.194 33.9509 53.9986 33.7467ZM47.3557 35.1538V28.9805H38.672C38.0946 28.9805 37.63 29.4662 37.63 30.0699V51.1317C37.63 51.7354 38.0946 52.2211 38.672 52.2211H53.2605C53.838 52.2211 54.3026 51.7354 54.3026 51.1317V36.2432H48.3977C47.8246 36.2432 47.3557 35.753 47.3557 35.1538ZM40.4088 32.2487C40.4088 32.0481 40.5642 31.8856 40.7561 31.8856H44.2296C44.4215 31.8856 44.5769 32.0481 44.5769 32.2487V32.975C44.5769 33.1756 44.4215 33.3381 44.2296 33.3381H40.7561C40.5642 33.3381 40.4088 33.1756 40.4088 32.975V32.2487ZM40.4088 35.1538C40.4088 34.9532 40.5642 34.7907 40.7561 34.7907H44.2296C44.4215 34.7907 44.5769 34.9532 44.5769 35.1538V35.8801C44.5769 36.0807 44.4215 36.2432 44.2296 36.2432H40.7561C40.5642 36.2432 40.4088 36.0807 40.4088 35.8801V35.1538ZM51.5238 48.9529C51.5238 49.1535 51.3684 49.316 51.1765 49.316H47.703C47.5111 49.316 47.3557 49.1535 47.3557 48.9529V48.2266C47.3557 48.026 47.5111 47.8635 47.703 47.8635H51.1765C51.3684 47.8635 51.5238 48.026 51.5238 48.2266V48.9529ZM51.5238 39.8745V44.2321C51.5238 44.6334 51.2129 44.9584 50.8291 44.9584H41.1035C40.7196 44.9584 40.4088 44.6334 40.4088 44.2321V39.8745C40.4088 39.4733 40.7196 39.1483 41.1035 39.1483H50.8291C51.2129 39.1483 51.5238 39.4733 51.5238 39.8745Z" fill="white"/>
</g>
<defs>
<filter id="filter0_d_1_411" x="-1.14441e-05" y="-8.58307e-06" width="91.4278" height="91.4277" filterUnits="userSpaceOnUse" color-interpolation-filters="sRGB">
<feFlood flood-opacity="0" result="BackgroundImageFix"/>
<feColorMatrix in="SourceAlpha" type="matrix" values="0 0 0 0 0 0 0 0 0 0 0 0 0 0 0 0 0 0 127 0" result="hardAlpha"/>
<feOffset dy="5.1131"/>
<feGaussianBlur stdDeviation="10.2262"/>
<feColorMatrix type="matrix" values="0 0 0 0 0.212 0 0 0 0 0.238778 0 0 0 0 0.533333 0 0 0 0.06 0"/>
<feBlend mode="normal" in2="BackgroundImageFix" result="effect1_dropShadow_1_411"/>
<feBlend mode="normal" in="SourceGraphic" in2="effect1_dropShadow_1_411" result="shape"/>
</filter>
<clipPath id="clip0_1_411">
<rect width="16.6726" height="23.2405" fill="white" transform="translate(37.63 28.9805)"/>
</clipPath>
</defs>
</svg>
