<svg width="159" height="30" viewBox="0 0 159 30" fill="none" xmlns="http://www.w3.org/2000/svg">
<path d="M0.74 15.02C0.74 13.66 1.05333 12.44 1.68 11.36C2.32 10.28 3.18 9.44 4.26 8.84C5.35333 8.22667 6.54667 7.92 7.84 7.92C9.32 7.92 10.6333 8.28667 11.78 9.02C12.94 9.74 13.78 10.7667 14.3 12.1H11.56C11.2 11.3667 10.7 10.82 10.06 10.46C9.42 10.1 8.68 9.92 7.84 9.92C6.92 9.92 6.1 10.1267 5.38 10.54C4.66 10.9533 4.09333 11.5467 3.68 12.32C3.28 13.0933 3.08 13.9933 3.08 15.02C3.08 16.0467 3.28 16.9467 3.68 17.72C4.09333 18.4933 4.66 19.0933 5.38 19.52C6.1 19.9333 6.92 20.14 7.84 20.14C8.68 20.14 9.42 19.96 10.06 19.6C10.7 19.24 11.2 18.6933 11.56 17.96H14.3C13.78 19.2933 12.94 20.32 11.78 21.04C10.6333 21.76 9.32 22.12 7.84 22.12C6.53333 22.12 5.34 21.82 4.26 21.22C3.18 20.6067 2.32 19.76 1.68 18.68C1.05333 17.6 0.74 16.38 0.74 15.02ZM16.2088 16.44C16.2088 15.3333 16.4354 14.3533 16.8888 13.5C17.3554 12.6467 17.9821 11.9867 18.7688 11.52C19.5688 11.04 20.4488 10.8 21.4088 10.8C22.2754 10.8 23.0288 10.9733 23.6688 11.32C24.3221 11.6533 24.8421 12.0733 25.2288 12.58V10.98H27.5288V22H25.2288V20.36C24.8421 20.88 24.3154 21.3133 23.6488 21.66C22.9821 22.0067 22.2221 22.18 21.3688 22.18C20.4221 22.18 19.5554 21.94 18.7688 21.46C17.9821 20.9667 17.3554 20.2867 16.8888 19.42C16.4354 18.54 16.2088 17.5467 16.2088 16.44ZM25.2288 16.48C25.2288 15.72 25.0688 15.06 24.7488 14.5C24.4421 13.94 24.0354 13.5133 23.5288 13.22C23.0221 12.9267 22.4754 12.78 21.8888 12.78C21.3021 12.78 20.7554 12.9267 20.2488 13.22C19.7421 13.5 19.3288 13.92 19.0088 14.48C18.7021 15.0267 18.5488 15.68 18.5488 16.44C18.5488 17.2 18.7021 17.8667 19.0088 18.44C19.3288 19.0133 19.7421 19.4533 20.2488 19.76C20.7688 20.0533 21.3154 20.2 21.8888 20.2C22.4754 20.2 23.0221 20.0533 23.5288 19.76C24.0354 19.4667 24.4421 19.04 24.7488 18.48C25.0688 17.9067 25.2288 17.24 25.2288 16.48ZM32.8034 12.58C33.1368 12.02 33.5768 11.5867 34.1234 11.28C34.6834 10.96 35.3434 10.8 36.1034 10.8V13.16H35.5234C34.6301 13.16 33.9501 13.3867 33.4834 13.84C33.0301 14.2933 32.8034 15.08 32.8034 16.2V22H30.5234V10.98H32.8034V12.58ZM48.2992 16.22C48.2992 16.6333 48.2726 17.0067 48.2192 17.34H39.7992C39.8659 18.22 40.1926 18.9267 40.7792 19.46C41.3659 19.9933 42.0859 20.26 42.9392 20.26C44.1659 20.26 45.0326 19.7467 45.5392 18.72H47.9992C47.6659 19.7333 47.0592 20.5667 46.1792 21.22C45.3126 21.86 44.2326 22.18 42.9392 22.18C41.8859 22.18 40.9392 21.9467 40.0992 21.48C39.2726 21 38.6192 20.3333 38.1392 19.48C37.6726 18.6133 37.4392 17.6133 37.4392 16.48C37.4392 15.3467 37.6659 14.3533 38.1192 13.5C38.5859 12.6333 39.2326 11.9667 40.0592 11.5C40.8992 11.0333 41.8592 10.8 42.9392 10.8C43.9792 10.8 44.9059 11.0267 45.7192 11.48C46.5326 11.9333 47.1659 12.5733 47.6192 13.4C48.0726 14.2133 48.2992 15.1533 48.2992 16.22ZM45.9192 15.5C45.9059 14.66 45.6059 13.9867 45.0192 13.48C44.4326 12.9733 43.7059 12.72 42.8392 12.72C42.0526 12.72 41.3792 12.9733 40.8192 13.48C40.2592 13.9733 39.9259 14.6467 39.8192 15.5H45.9192ZM60.643 16.22C60.643 16.6333 60.6163 17.0067 60.563 17.34H52.143C52.2096 18.22 52.5363 18.9267 53.123 19.46C53.7096 19.9933 54.4296 20.26 55.283 20.26C56.5096 20.26 57.3763 19.7467 57.883 18.72H60.343C60.0096 19.7333 59.403 20.5667 58.523 21.22C57.6563 21.86 56.5763 22.18 55.283 22.18C54.2296 22.18 53.283 21.9467 52.443 21.48C51.6163 21 50.963 20.3333 50.483 19.48C50.0163 18.6133 49.783 17.6133 49.783 16.48C49.783 15.3467 50.0096 14.3533 50.463 13.5C50.9296 12.6333 51.5763 11.9667 52.403 11.5C53.243 11.0333 54.203 10.8 55.283 10.8C56.323 10.8 57.2496 11.0267 58.063 11.48C58.8763 11.9333 59.5096 12.5733 59.963 13.4C60.4163 14.2133 60.643 15.1533 60.643 16.22ZM58.263 15.5C58.2496 14.66 57.9496 13.9867 57.363 13.48C56.7763 12.9733 56.0496 12.72 55.183 12.72C54.3963 12.72 53.723 12.9733 53.163 13.48C52.603 13.9733 52.2696 14.6467 52.163 15.5H58.263ZM65.1667 12.58C65.5001 12.02 65.9401 11.5867 66.4867 11.28C67.0467 10.96 67.7067 10.8 68.4667 10.8V13.16H67.8867C66.9934 13.16 66.3134 13.3867 65.8467 13.84C65.3934 14.2933 65.1667 15.08 65.1667 16.2V22H62.8867V10.98H65.1667V12.58ZM80.2825 12.24C80.2825 12.9467 80.1158 13.6133 79.7825 14.24C79.4492 14.8667 78.9158 15.38 78.1825 15.78C77.4492 16.1667 76.5092 16.36 75.3625 16.36H72.8425V22H70.5625V8.1H75.3625C76.4292 8.1 77.3292 8.28667 78.0625 8.66C78.8092 9.02 79.3625 9.51333 79.7225 10.14C80.0958 10.7667 80.2825 11.4667 80.2825 12.24ZM75.3625 14.5C76.2292 14.5 76.8758 14.3067 77.3025 13.92C77.7292 13.52 77.9425 12.96 77.9425 12.24C77.9425 10.72 77.0825 9.96 75.3625 9.96H72.8425V14.5H75.3625ZM81.697 16.44C81.697 15.3333 81.9237 14.3533 82.377 13.5C82.8437 12.6467 83.4704 11.9867 84.257 11.52C85.057 11.04 85.937 10.8 86.897 10.8C87.7637 10.8 88.517 10.9733 89.157 11.32C89.8104 11.6533 90.3304 12.0733 90.717 12.58V10.98H93.017V22H90.717V20.36C90.3304 20.88 89.8037 21.3133 89.137 21.66C88.4704 22.0067 87.7104 22.18 86.857 22.18C85.9104 22.18 85.0437 21.94 84.257 21.46C83.4704 20.9667 82.8437 20.2867 82.377 19.42C81.9237 18.54 81.697 17.5467 81.697 16.44ZM90.717 16.48C90.717 15.72 90.557 15.06 90.237 14.5C89.9304 13.94 89.5237 13.5133 89.017 13.22C88.5104 12.9267 87.9637 12.78 87.377 12.78C86.7904 12.78 86.2437 12.9267 85.737 13.22C85.2304 13.5 84.817 13.92 84.497 14.48C84.1904 15.0267 84.037 15.68 84.037 16.44C84.037 17.2 84.1904 17.8667 84.497 18.44C84.817 19.0133 85.2304 19.4533 85.737 19.76C86.257 20.0533 86.8037 20.2 87.377 20.2C87.9637 20.2 88.5104 20.0533 89.017 19.76C89.5237 19.4667 89.9304 19.04 90.237 18.48C90.557 17.9067 90.717 17.24 90.717 16.48ZM98.6717 12.84V18.94C98.6717 19.3533 98.7651 19.6533 98.9517 19.84C99.1517 20.0133 99.4851 20.1 99.9517 20.1H101.352V22H99.5517C98.5251 22 97.7384 21.76 97.1917 21.28C96.6451 20.8 96.3717 20.02 96.3717 18.94V12.84H95.0717V10.98H96.3717V8.24H98.6717V10.98H101.352V12.84H98.6717ZM109.153 10.8C109.993 10.8 110.74 10.98 111.393 11.34C112.06 11.7 112.58 12.2333 112.953 12.94C113.34 13.6467 113.533 14.5 113.533 15.5V22H111.273V15.84C111.273 14.8533 111.026 14.1 110.533 13.58C110.04 13.0467 109.366 12.78 108.513 12.78C107.66 12.78 106.98 13.0467 106.473 13.58C105.98 14.1 105.733 14.8533 105.733 15.84V22H103.453V7.2H105.733V12.26C106.12 11.7933 106.606 11.4333 107.193 11.18C107.793 10.9267 108.446 10.8 109.153 10.8ZM127.861 22H125.581L118.721 11.62V22H116.441V8.08H118.721L125.581 18.44V8.08H127.861V22ZM135.635 22.18C134.595 22.18 133.655 21.9467 132.815 21.48C131.975 21 131.315 20.3333 130.835 19.48C130.355 18.6133 130.115 17.6133 130.115 16.48C130.115 15.36 130.362 14.3667 130.855 13.5C131.349 12.6333 132.022 11.9667 132.875 11.5C133.729 11.0333 134.682 10.8 135.735 10.8C136.789 10.8 137.742 11.0333 138.595 11.5C139.449 11.9667 140.122 12.6333 140.615 13.5C141.109 14.3667 141.355 15.36 141.355 16.48C141.355 17.6 141.102 18.5933 140.595 19.46C140.089 20.3267 139.395 21 138.515 21.48C137.649 21.9467 136.689 22.18 135.635 22.18ZM135.635 20.2C136.222 20.2 136.769 20.06 137.275 19.78C137.795 19.5 138.215 19.08 138.535 18.52C138.855 17.96 139.015 17.28 139.015 16.48C139.015 15.68 138.862 15.0067 138.555 14.46C138.249 13.9 137.842 13.48 137.335 13.2C136.829 12.92 136.282 12.78 135.695 12.78C135.109 12.78 134.562 12.92 134.055 13.2C133.562 13.48 133.169 13.9 132.875 14.46C132.582 15.0067 132.435 15.68 132.435 16.48C132.435 17.6667 132.735 18.5867 133.335 19.24C133.949 19.88 134.715 20.2 135.635 20.2ZM158.409 10.98L154.989 22H152.589L150.369 13.86L148.149 22H145.749L142.309 10.98H144.629L146.929 19.84L149.269 10.98H151.649L153.889 19.8L156.169 10.98H158.409Z" fill="white"/>
</svg>
